<svg xmlns="http://www.w3.org/2000/svg" width="64" height="64" viewBox="0 0 24 24" fill="none">
  <defs>
    <filter id="r1" x="-20%" y="-20%" width="140%" height="140%">
      <feTurbulence type="fractalNoise" baseFrequency="0.045" numOctaves="2" seed="31" result="n"/>
      <feDisplacementMap in="SourceGraphic" in2="n" scale="2.2"/>
    </filter>
    <filter id="r2" x="-20%" y="-20%" width="140%" height="140%">
      <feTurbulence type="fractalNoise" baseFrequency="0.05" numOctaves="2" seed="37" result="n"/>
      <feDisplacementMap in="SourceGraphic" in2="n" scale="2.6"/>
    </filter>
  </defs>
  <g stroke="currentColor" stroke-width="1.4" stroke-linecap="round" stroke-linejoin="round" opacity="0.5" filter="url(#r1)">
    <rect x="8" y="8" width="8" height="8" rx="1"/>
    <path d="M12 3v3"/>
    <path d="M12 18v3"/>
    <path d="M3 12h3"/>
    <path d="M18 12h3"/>
    <path d="M6 6l2 2"/>
    <path d="M16 16l2 2"/>
    <path d="M18 6l-2 2"/>
    <path d="M8 16l-2 2"/>
  </g>
  <g stroke="currentColor" stroke-width="1.6" stroke-linecap="round" stroke-linejoin="round" filter="url(#r2)">
    <rect x="8" y="8" width="8" height="8" rx="1"/>
    <path d="M12 3v3"/>
    <path d="M12 18v3"/>
    <path d="M3 12h3"/>
    <path d="M18 12h3"/>
    <path d="M6 6l2 2"/>
    <path d="M16 16l2 2"/>
    <path d="M18 6l-2 2"/>
    <path d="M8 16l-2 2"/>
  </g>
</svg>
