<svg xmlns="http://www.w3.org/2000/svg" width="64" height="64" viewBox="0 0 24 24" fill="none">
  <defs>
    <filter id="r1" x="-20%" y="-20%" width="140%" height="140%">
      <feTurbulence type="fractalNoise" baseFrequency="0.045" numOctaves="2" seed="5" result="n"/>
      <feDisplacementMap in="SourceGraphic" in2="n" scale="2.2"/>
    </filter>
    <filter id="r2" x="-20%" y="-20%" width="140%" height="140%">
      <feTurbulence type="fractalNoise" baseFrequency="0.05" numOctaves="2" seed="11" result="n"/>
      <feDisplacementMap in="SourceGraphic" in2="n" scale="2.6"/>
    </filter>
  </defs>
  <g stroke="currentColor" stroke-width="1.4" stroke-linecap="round" stroke-linejoin="round" opacity="0.55" filter="url(#r1)">
    <path d="M12 3a9 9 0 1 0 9 9c0 -1.5 -1 -2.5 -2.5 -2.5h-2a2 2 0 0 1 -2 -2c0 -.9 .4 -1.5 1 -2c.6 -.5 1 -1 1 -2c0 -1.4 -1.8 -2.5 -4.5 -2.5z"/>
  </g>
  <g stroke="currentColor" stroke-width="1.6" stroke-linecap="round" stroke-linejoin="round" filter="url(#r2)">
    <path d="M12 3a9 9 0 1 0 9 9c0 -1.5 -1 -2.5 -2.5 -2.5h-2a2 2 0 0 1 -2 -2c0 -.9 .4 -1.5 1 -2c.6 -.5 1 -1 1 -2c0 -1.4 -1.8 -2.5 -4.5 -2.5z"/>
  </g>
  <circle cx="7.5" cy="11.5" r="1" fill="currentColor" filter="url(#r1)"/>
  <circle cx="8.5" cy="15.5" r="1" fill="currentColor" filter="url(#r2)"/>
  <circle cx="12.5" cy="17" r="1" fill="currentColor" filter="url(#r1)"/>
</svg>
